<svg width="32" height="30" viewBox="0 0 32 30" fill="none" xmlns="http://www.w3.org/2000/svg">
<path d="M17.4274 9.1598V24.6948L3.66235 22.4298V6.0198L17.4274 3.4248V6.8798" stroke="#231F20" stroke-miterlimit="10" stroke-linecap="round" stroke-linejoin="round"/>
<path d="M17.4272 6.8798V3.4248L28.6472 5.1848V20.7548L17.4272 24.6948V9.1598" stroke="#231F20" stroke-miterlimit="10" stroke-linecap="round" stroke-linejoin="round"/>
<path d="M3.66235 8.67951L17.4224 6.87451L28.6524 8.05951" stroke="#231F20" stroke-miterlimit="10" stroke-linecap="round" stroke-linejoin="round"/>
<path d="M3.66235 10.9398L17.4224 9.15479L28.6524 10.3398" stroke="#231F20" stroke-miterlimit="10" stroke-linecap="round" stroke-linejoin="round"/>
<path d="M25.8972 21.7193V17.0293C25.8972 16.5693 25.5222 16.1943 25.0622 16.1943H22.9522C22.4922 16.1943 22.1172 16.5693 22.1172 17.0293V23.0493" stroke="#231F20" stroke-miterlimit="10" stroke-linecap="round" stroke-linejoin="round"/>
<path d="M3.6623 22.4294L1.4873 23.6244L17.4273 26.8344L31.2773 21.4844L28.6473 20.7544" stroke="#231F20" stroke-miterlimit="10" stroke-linecap="round" stroke-linejoin="round"/>
<path d="M3.06226 25.7895L17.4273 28.8745L27.1373 24.8945" stroke="#231F20" stroke-miterlimit="10" stroke-linecap="round" stroke-linejoin="round"/>
<path d="M28.8623 24.2145L30.3523 23.5195" stroke="#231F20" stroke-miterlimit="10" stroke-linecap="round" stroke-linejoin="round"/>
<path d="M5.78223 3.81957L17.0572 1.43457L22.6272 2.29457" stroke="#231F20" stroke-miterlimit="10" stroke-linecap="round" stroke-linejoin="round"/>
<path d="M24.5173 2.62939L26.3423 2.89439" stroke="#231F20" stroke-miterlimit="10" stroke-linecap="round" stroke-linejoin="round"/>
</svg>
