<svg width="29" height="32" viewBox="0 0 29 32" fill="none" xmlns="http://www.w3.org/2000/svg">
<path d="M21.4223 9.58936V13.1944C21.4223 16.6394 18.6323 19.4294 15.1873 19.4294H12.9873C9.54231 19.4294 6.74731 16.6394 6.74731 13.1944V9.58936H21.4223Z" stroke="#231F20" stroke-miterlimit="10" stroke-linecap="round" stroke-linejoin="round"/>
<path d="M16.5621 2.75439H11.6071C8.81713 2.75439 6.55713 5.01439 6.55713 7.80439V9.2994C6.55713 9.4594 6.68713 9.59439 6.85213 9.59439H21.3221C21.4821 9.59439 21.6171 9.4644 21.6171 9.2994V7.80439C21.6171 5.01439 19.3521 2.75439 16.5621 2.75439Z" stroke="#231F20" stroke-miterlimit="10" stroke-linecap="round" stroke-linejoin="round"/>
<path d="M19.4271 17.7695C23.4471 18.5545 26.4821 22.0995 26.4821 26.3545V30.8995H1.69214V26.3545C1.69214 22.0995 4.72214 18.5545 8.74714 17.7695" stroke="#231F20" stroke-miterlimit="10" stroke-linecap="round" stroke-linejoin="round"/>
<path d="M13.0671 19.4297V30.8947" stroke="#231F20" stroke-miterlimit="10" stroke-linecap="round" stroke-linejoin="round"/>
<path d="M12.7773 2.75455C12.7773 2.75455 12.7873 1.41455 14.1173 1.41455C14.1173 1.41455 15.4473 1.40955 15.3973 2.75455H12.7773Z" stroke="#231F20" stroke-miterlimit="10" stroke-linecap="round" stroke-linejoin="round"/>
<path d="M15.0474 19.4297V30.8947" stroke="#231F20" stroke-miterlimit="10" stroke-linecap="round" stroke-linejoin="round"/>
<path d="M6.55713 7.69434H10.7521" stroke="#231F20" stroke-miterlimit="10" stroke-linecap="round" stroke-linejoin="round"/>
<path d="M4.45725 17.7695C4.45725 17.7695 1.81725 18.7845 0.927246 21.6445" stroke="#231F20" stroke-miterlimit="10" stroke-linecap="round" stroke-linejoin="round"/>
<path d="M26.7173 20.5796C26.7173 20.5796 27.8323 21.9946 28.0573 23.9996" stroke="#231F20" stroke-miterlimit="10" stroke-linecap="round" stroke-linejoin="round"/>
</svg>
