<svg width="18" height="16" viewBox="0 0 18 16" fill="none" xmlns="http://www.w3.org/2000/svg">
<path d="M14.0132 7.81934L7.47803 1.28418C7.43245 1.23861 7.38232 1.20443 7.32764 1.18164C7.27295 1.15885 7.21826 1.14746 7.16357 1.14746C7.09977 1.14746 7.04053 1.15885 6.98584 1.18164C6.93115 1.20443 6.88102 1.23861 6.83545 1.28418L6.13818 1.98145C6.09261 2.02702 6.05615 2.07715 6.02881 2.13184C6.00146 2.18652 5.98779 2.24577 5.98779 2.30957C5.98779 2.37337 6.00146 2.43034 6.02881 2.48047C6.05615 2.5306 6.09261 2.58301 6.13818 2.6377L11.6479 8.14746L6.13818 13.6572C6.09261 13.7028 6.05615 13.7529 6.02881 13.8076C6.00146 13.8623 5.98779 13.9215 5.98779 13.9854C5.98779 14.04 6.00146 14.0947 6.02881 14.1494C6.05615 14.2041 6.09261 14.2542 6.13818 14.2998L6.83545 15.0107C6.88102 15.0563 6.93115 15.0905 6.98584 15.1133C7.04053 15.1361 7.09977 15.1475 7.16357 15.1475C7.21826 15.1475 7.27295 15.1361 7.32764 15.1133C7.38232 15.0905 7.43245 15.0563 7.47803 15.0107L14.0132 8.46191C14.0588 8.41634 14.0952 8.36621 14.1226 8.31152C14.1499 8.25684 14.1636 8.20215 14.1636 8.14746C14.1636 8.08366 14.1499 8.02441 14.1226 7.96973C14.0952 7.91504 14.0588 7.86491 14.0132 7.81934ZM8.77686 8.14746C8.77686 8.08366 8.76318 8.02441 8.73584 7.96973C8.7085 7.91504 8.67204 7.86491 8.62646 7.81934L2.09131 1.28418C2.04574 1.23861 1.99561 1.20443 1.94092 1.18164C1.88623 1.15885 1.83154 1.14746 1.77686 1.14746C1.71305 1.14746 1.65381 1.15885 1.59912 1.18164C1.54443 1.20443 1.4943 1.23861 1.44873 1.28418L0.751465 1.98145C0.705892 2.03613 0.669434 2.08854 0.64209 2.13867C0.614746 2.1888 0.601074 2.24577 0.601074 2.30957C0.601074 2.37337 0.614746 2.43034 0.64209 2.48047C0.669434 2.5306 0.705892 2.58301 0.751465 2.6377L6.26123 8.14746L0.751465 13.6572C0.705892 13.7028 0.669434 13.7529 0.64209 13.8076C0.614746 13.8623 0.601074 13.9215 0.601074 13.9854C0.601074 14.04 0.614746 14.0947 0.64209 14.1494C0.669434 14.2041 0.705892 14.2542 0.751465 14.2998L1.44873 15.0107C1.4943 15.0563 1.54443 15.0905 1.59912 15.1133C1.65381 15.1361 1.71305 15.1475 1.77686 15.1475C1.83154 15.1475 1.88623 15.1361 1.94092 15.1133C1.99561 15.0905 2.04574 15.0563 2.09131 15.0107L8.62646 8.46191C8.67204 8.41634 8.7085 8.36621 8.73584 8.31152C8.76318 8.25684 8.77686 8.20215 8.77686 8.14746Z" fill="#0A5B21"/>
</svg>
