<svg width="18" height="15" viewBox="0 0 18 15" fill="none" xmlns="http://www.w3.org/2000/svg">
<path d="M13.8701 5.05176C14.1709 5.29785 14.3623 5.65332 14.3623 6.06348V13.2275C14.3623 13.9658 13.7607 14.54 13.0498 14.54H1.6748C0.936523 14.54 0.362305 13.9658 0.362305 13.2275V6.06348C0.362305 5.65332 0.526367 5.29785 0.827148 5.05176C0.936523 4.96973 3.8623 2.61816 4.51855 2.07129C5.14746 1.5791 6.15918 0.540039 7.3623 0.540039C8.53809 0.540039 9.57715 1.60645 10.1787 2.07129C10.8076 2.59082 13.7334 4.94238 13.8701 5.05176ZM13.0498 13.0635V6.14551C13.0498 6.09082 13.0225 6.03613 12.9678 6.00879C12.5303 5.65332 9.9873 3.62988 9.3584 3.11035C8.86621 2.72754 7.99121 1.85254 7.3623 1.85254C6.70605 1.85254 5.83105 2.7002 5.33887 3.11035C4.70996 3.62988 2.16699 5.65332 1.72949 6.00879C1.6748 6.03613 1.6748 6.09082 1.6748 6.14551V13.0635C1.6748 13.1729 1.72949 13.2275 1.83887 13.2275H12.8857C12.9678 13.2275 13.0498 13.1729 13.0498 13.0635ZM12.1748 7.9502C12.2842 8.08691 12.2568 8.30566 12.1201 8.41504C11.3271 9.04395 10.4795 9.7002 10.1787 9.97363C9.5498 10.4658 8.53809 11.4775 7.3623 11.4775C6.15918 11.4775 5.12012 10.4385 4.51855 9.97363C4.21777 9.72754 3.37012 9.04395 2.57715 8.41504C2.44043 8.30566 2.41309 8.08691 2.52246 7.9502L2.95996 7.43066C3.06934 7.29395 3.26074 7.2666 3.4248 7.40332C4.19043 8.03223 5.01074 8.68848 5.33887 8.93457C5.83105 9.31738 6.70605 10.165 7.3623 10.165C7.99121 10.165 8.86621 9.34473 9.3584 8.93457C9.68652 8.68848 10.5068 8.03223 11.2725 7.40332C11.4365 7.2666 11.6279 7.29395 11.7373 7.43066L12.1748 7.9502Z" fill="white"/>
</svg>
