<svg width="15" height="15" viewBox="0 0 15 15" fill="none" xmlns="http://www.w3.org/2000/svg">
<path d="M7.3623 0.758789C11.1084 0.758789 14.1436 3.79395 14.1436 7.54004C14.1436 11.2861 11.1084 14.3213 7.3623 14.3213C3.61621 14.3213 0.581055 11.2861 0.581055 7.54004C0.581055 3.79395 3.61621 0.758789 7.3623 0.758789ZM7.3623 13.0088C10.3701 13.0088 12.8311 10.5752 12.8311 7.54004C12.8311 4.53223 10.3701 2.07129 7.3623 2.07129C4.32715 2.07129 1.89355 4.53223 1.89355 7.54004C1.89355 10.5752 4.32715 13.0088 7.3623 13.0088ZM9.03027 10.165L6.70605 8.46973C6.62402 8.41504 6.59668 8.30566 6.59668 8.22363V3.71191C6.59668 3.54785 6.7334 3.38379 6.9248 3.38379H7.7998C7.96387 3.38379 8.12793 3.54785 8.12793 3.71191V7.59473L9.93262 8.93457C10.0967 9.04395 10.124 9.23535 10.0146 9.39941L9.49512 10.083C9.38574 10.2471 9.19434 10.2744 9.03027 10.165Z" fill="white"/>
</svg>
