<svg width="15" height="14" viewBox="0 0 15 14" fill="none" xmlns="http://www.w3.org/2000/svg">
<path d="M7.38403 0.348633C11.1301 0.348633 14.1653 3.38379 14.1653 7.12988C14.1653 10.876 11.1301 13.9111 7.38403 13.9111C3.63794 13.9111 0.602783 10.876 0.602783 7.12988C0.602783 3.38379 3.63794 0.348633 7.38403 0.348633ZM7.38403 12.5986C10.3918 12.5986 12.8528 10.165 12.8528 7.12988C12.8528 4.12207 10.3918 1.66113 7.38403 1.66113C4.34888 1.66113 1.91528 4.12207 1.91528 7.12988C1.91528 10.165 4.34888 12.5986 7.38403 12.5986ZM9.052 9.75488L6.72778 8.05957C6.64575 8.00488 6.61841 7.89551 6.61841 7.81348V3.30176C6.61841 3.1377 6.75513 2.97363 6.94653 2.97363H7.82153C7.9856 2.97363 8.14966 3.1377 8.14966 3.30176V7.18457L9.95435 8.52441C10.1184 8.63379 10.1458 8.8252 10.0364 8.98926L9.51685 9.67285C9.40747 9.83691 9.21606 9.86426 9.052 9.75488Z" fill="#0A5B21"/>
</svg>
