<svg width="18" height="15" viewBox="0 0 18 15" fill="none" xmlns="http://www.w3.org/2000/svg">
<path d="M13.9521 10.4385C14.1709 10.5479 14.335 10.7939 14.335 11.0674C14.335 11.0947 14.335 11.1494 14.335 11.2041L13.6787 14.0479C13.5967 14.3486 13.3506 14.54 13.0498 14.54C6.02246 14.54 0.362305 8.87988 0.362305 1.85254C0.362305 1.55176 0.553711 1.30566 0.854492 1.22363L3.69824 0.567383C3.75293 0.567383 3.80762 0.540039 3.83496 0.540039C4.1084 0.540039 4.35449 0.704102 4.46387 0.950195L5.77637 4.0127C5.80371 4.09473 5.83105 4.17676 5.83105 4.25879C5.83105 4.47754 5.72168 4.66895 5.58496 4.77832L3.91699 6.14551C4.92871 8.27832 6.62402 9.97363 8.75684 10.9854L10.124 9.31738C10.2334 9.18066 10.4248 9.07129 10.6162 9.07129C10.7256 9.07129 10.8076 9.09863 10.8896 9.12598L13.9521 10.4385Z" fill="white"/>
</svg>
