<svg width="18" height="15" viewBox="0 0 18 15" fill="none" xmlns="http://www.w3.org/2000/svg">
<path d="M15.6748 1.41504C15.8936 1.41504 16.1123 1.60645 16.1123 1.87988V11.3408C16.1123 11.6963 15.8662 12.0244 15.5381 12.1611L11.4092 13.583C11.2178 13.6377 11.0537 13.665 10.8623 13.665C10.6709 13.665 10.4795 13.6377 10.3154 13.583L5.6123 11.915L0.936523 13.6377C0.881836 13.665 0.827148 13.665 0.772461 13.665C0.553711 13.665 0.362305 13.501 0.362305 13.2275V3.7666C0.362305 3.41113 0.581055 3.08301 0.90918 2.94629L5.03809 1.52441C5.22949 1.46973 5.4209 1.41504 5.58496 1.41504C5.77637 1.44238 5.96777 1.46973 6.15918 1.52441L10.8623 3.16504L15.5107 1.46973C15.5654 1.44238 15.6201 1.41504 15.6748 1.41504ZM6.4873 3.02832V10.8486L9.9873 12.0791V4.25879L6.4873 3.02832ZM1.6748 11.9971L5.14746 10.6846H5.1748V2.86426L1.6748 4.09473V11.9971ZM14.7998 11.0127V3.11035L11.2998 4.42285V12.2432L14.7998 11.0127Z" fill="white"/>
</svg>
