<svg width="50" height="50" viewBox="0 0 50 50" fill="none" xmlns="http://www.w3.org/2000/svg">
<circle cx="25" cy="25" r="25" fill="white"/>
<path d="M34.582 25.0117C34.582 25.2327 34.4942 25.4447 34.338 25.601C34.1817 25.7573 33.9697 25.8451 33.7487 25.8451H15.4154C15.1944 25.8451 14.9824 25.7573 14.8261 25.601C14.6698 25.4447 14.582 25.2327 14.582 25.0117C14.582 24.7907 14.6698 24.5787 14.8261 24.4225C14.9824 24.2662 15.1944 24.1784 15.4154 24.1784H33.7487C33.9697 24.1784 34.1817 24.2662 34.338 24.4225C34.4942 24.5787 34.582 24.7907 34.582 25.0117ZM15.4154 19.1784H33.7487C33.9697 19.1784 34.1817 19.0906 34.338 18.9343C34.4942 18.778 34.582 18.5661 34.582 18.3451C34.582 18.124 34.4942 17.9121 34.338 17.7558C34.1817 17.5995 33.9697 17.5117 33.7487 17.5117H15.4154C15.1944 17.5117 14.9824 17.5995 14.8261 17.7558C14.6698 17.9121 14.582 18.124 14.582 18.3451C14.582 18.5661 14.6698 18.778 14.8261 18.9343C14.9824 19.0906 15.1944 19.1784 15.4154 19.1784ZM33.7487 30.8451H15.4154C15.1944 30.8451 14.9824 30.9328 14.8261 31.0891C14.6698 31.2454 14.582 31.4574 14.582 31.6784C14.582 31.8994 14.6698 32.1114 14.8261 32.2676C14.9824 32.4239 15.1944 32.5117 15.4154 32.5117H33.7487C33.9697 32.5117 34.1817 32.4239 34.338 32.2676C34.4942 32.1114 34.582 31.8994 34.582 31.6784C34.582 31.4574 34.4942 31.2454 34.338 31.0891C34.1817 30.9328 33.9697 30.8451 33.7487 30.8451Z" fill="black"/>
</svg>
