<svg width="12" height="14" viewBox="0 0 12 14" fill="none" xmlns="http://www.w3.org/2000/svg">
<path d="M6 3.58813C7.59961 3.58813 8.91992 4.90845 8.91992 6.50806C8.91992 8.13306 7.59961 9.42798 6 9.42798C4.375 9.42798 3.08008 8.13306 3.08008 6.50806C3.08008 4.90845 4.375 3.58813 6 3.58813ZM6 8.41235C7.04102 8.41235 7.87891 7.57446 7.87891 6.50806C7.87891 5.46704 7.04102 4.62915 6 4.62915C4.93359 4.62915 4.0957 5.46704 4.0957 6.50806C4.0957 7.57446 4.95898 8.41235 6 8.41235ZM9.70703 3.48657C9.70703 3.86743 9.40234 4.17212 9.02148 4.17212C8.64062 4.17212 8.33594 3.86743 8.33594 3.48657C8.33594 3.10571 8.64062 2.80103 9.02148 2.80103C9.40234 2.80103 9.70703 3.10571 9.70703 3.48657ZM11.6367 4.17212C11.6875 5.11157 11.6875 7.92993 11.6367 8.86938C11.5859 9.78345 11.3828 10.5706 10.7227 11.2561C10.0625 11.9163 9.25 12.1194 8.33594 12.1702C7.39648 12.2209 4.57812 12.2209 3.63867 12.1702C2.72461 12.1194 1.9375 11.9163 1.25195 11.2561C0.591797 10.5706 0.388672 9.78345 0.337891 8.86938C0.287109 7.92993 0.287109 5.11157 0.337891 4.17212C0.388672 3.25806 0.591797 2.44556 1.25195 1.7854C1.9375 1.12524 2.72461 0.922119 3.63867 0.871338C4.57812 0.820557 7.39648 0.820557 8.33594 0.871338C9.25 0.922119 10.0625 1.12524 10.7227 1.7854C11.3828 2.44556 11.5859 3.25806 11.6367 4.17212ZM10.418 9.85962C10.7227 9.12329 10.6465 7.34595 10.6465 6.50806C10.6465 5.69556 10.7227 3.91821 10.418 3.15649C10.2148 2.67407 9.83398 2.26782 9.35156 2.09009C8.58984 1.7854 6.8125 1.86157 6 1.86157C5.16211 1.86157 3.38477 1.7854 2.64844 2.09009C2.14062 2.29321 1.75977 2.67407 1.55664 3.15649C1.25195 3.91821 1.32812 5.69556 1.32812 6.50806C1.32812 7.34595 1.25195 9.12329 1.55664 9.85962C1.75977 10.3674 2.14062 10.7483 2.64844 10.9514C3.38477 11.2561 5.16211 11.1799 6 11.1799C6.8125 11.1799 8.58984 11.2561 9.35156 10.9514C9.83398 10.7483 10.2402 10.3674 10.418 9.85962Z" fill="white"/>
</svg>
