<svg width="14" height="14" viewBox="0 0 14 14" fill="none" xmlns="http://www.w3.org/2000/svg">
<path d="M11.875 0.820557C12.3066 0.820557 12.6875 1.20142 12.6875 1.65845V11.3831C12.6875 11.8401 12.3066 12.1956 11.875 12.1956H2.09961C1.66797 12.1956 1.3125 11.8401 1.3125 11.3831V1.65845C1.3125 1.20142 1.66797 0.820557 2.09961 0.820557H11.875ZM4.74023 10.5706V5.16235H3.06445V10.5706H4.74023ZM3.90234 4.40063C4.43555 4.40063 4.86719 3.96899 4.86719 3.43579C4.86719 2.90259 4.43555 2.44556 3.90234 2.44556C3.34375 2.44556 2.91211 2.90259 2.91211 3.43579C2.91211 3.96899 3.34375 4.40063 3.90234 4.40063ZM11.0625 10.5706V7.59985C11.0625 6.15259 10.7324 5.01001 9.03125 5.01001C8.21875 5.01001 7.66016 5.46704 7.43164 5.89868H7.40625V5.16235H5.80664V10.5706H7.48242V7.90454C7.48242 7.1936 7.60938 6.50806 8.49805 6.50806C9.36133 6.50806 9.36133 7.32056 9.36133 7.92993V10.5706H11.0625Z" fill="white"/>
</svg>
