<svg width="18" height="15" viewBox="0 0 18 15" fill="none" xmlns="http://www.w3.org/2000/svg">
<path d="M5.20312 14.0397C1.21094 8.29749 0.5 7.69592 0.5 5.56311C0.5 2.66467 2.82422 0.31311 5.75 0.31311C8.64844 0.31311 11 2.66467 11 5.56311C11 7.69592 10.2617 8.29749 6.26953 14.0397C6.02344 14.4225 5.44922 14.4225 5.20312 14.0397ZM5.75 7.75061C6.95312 7.75061 7.9375 6.79358 7.9375 5.56311C7.9375 4.35999 6.95312 3.37561 5.75 3.37561C4.51953 3.37561 3.5625 4.35999 3.5625 5.56311C3.5625 6.79358 4.51953 7.75061 5.75 7.75061Z" fill="#DBAC42"/>
</svg>
