<svg width="18" height="15" viewBox="0 0 18 15" fill="none" xmlns="http://www.w3.org/2000/svg">
<path d="M13.5078 4.82483C13.8086 5.07092 14 5.42639 14 5.83655V13.0006C14 13.7389 13.3984 14.3131 12.6875 14.3131H1.3125C0.574219 14.3131 0 13.7389 0 13.0006V5.83655C0 5.42639 0.164062 5.07092 0.464844 4.82483C0.574219 4.7428 3.5 2.39124 4.15625 1.84436C4.78516 1.35217 5.79688 0.31311 7 0.31311C8.17578 0.31311 9.21484 1.37952 9.81641 1.84436C10.4453 2.36389 13.3711 4.71545 13.5078 4.82483ZM12.6875 12.8365V5.91858C12.6875 5.86389 12.6602 5.8092 12.6055 5.78186C12.168 5.42639 9.625 3.40295 8.99609 2.88342C8.50391 2.50061 7.62891 1.62561 7 1.62561C6.34375 1.62561 5.46875 2.47327 4.97656 2.88342C4.34766 3.40295 1.80469 5.42639 1.36719 5.78186C1.3125 5.8092 1.3125 5.86389 1.3125 5.91858V12.8365C1.3125 12.9459 1.36719 13.0006 1.47656 13.0006H12.5234C12.6055 13.0006 12.6875 12.9459 12.6875 12.8365ZM11.8125 7.72327C11.9219 7.85999 11.8945 8.07874 11.7578 8.18811C10.9648 8.81702 10.1172 9.47327 9.81641 9.7467C9.1875 10.2389 8.17578 11.2506 7 11.2506C5.79688 11.2506 4.75781 10.2115 4.15625 9.7467C3.85547 9.50061 3.00781 8.81702 2.21484 8.18811C2.07812 8.07874 2.05078 7.85999 2.16016 7.72327L2.59766 7.20374C2.70703 7.06702 2.89844 7.03967 3.0625 7.17639C3.82812 7.8053 4.64844 8.46155 4.97656 8.70764C5.46875 9.09045 6.34375 9.93811 7 9.93811C7.62891 9.93811 8.50391 9.1178 8.99609 8.70764C9.32422 8.46155 10.1445 7.8053 10.9102 7.17639C11.0742 7.03967 11.2656 7.06702 11.375 7.20374L11.8125 7.72327Z" fill="#DBAC42"/>
</svg>
