<svg width="16" height="14" viewBox="0 0 16 14" fill="none" xmlns="http://www.w3.org/2000/svg">
<path d="M14.3196 3.93848C14.3196 4.08496 14.3196 4.20215 14.3196 4.34863C14.3196 8.4209 11.2434 13.0791 5.58911 13.0791C3.8313 13.0791 2.21997 12.5811 0.872314 11.7021C1.10669 11.7314 1.34106 11.7607 1.60474 11.7607C3.04028 11.7607 4.35864 11.2627 5.41333 10.4424C4.06567 10.4131 2.9231 9.53418 2.54224 8.30371C2.74731 8.33301 2.9231 8.3623 3.12817 8.3623C3.39185 8.3623 3.68481 8.30371 3.91919 8.24512C2.51294 7.95215 1.45825 6.72168 1.45825 5.22754V5.19824C1.86841 5.43262 2.36646 5.5498 2.8645 5.5791C2.01489 5.02246 1.48755 4.08496 1.48755 3.03027C1.48755 2.44434 1.63403 1.91699 1.89771 1.47754C3.42114 3.32324 5.7063 4.55371 8.25513 4.7002C8.19653 4.46582 8.16724 4.23145 8.16724 3.99707C8.16724 2.29785 9.54419 0.920898 11.2434 0.920898C12.1223 0.920898 12.9133 1.27246 13.4993 1.8877C14.1731 1.74121 14.8469 1.47754 15.4329 1.12598C15.1985 1.8584 14.7297 2.44434 14.0852 2.8252C14.7004 2.7666 15.3157 2.59082 15.843 2.35645C15.4329 2.97168 14.9055 3.49902 14.3196 3.93848Z" fill="white"/>
</svg>
