<svg width="14" height="14" viewBox="0 0 14 14" fill="none" xmlns="http://www.w3.org/2000/svg">
<path d="M10.9609 2.49634C12.0273 3.56274 12.6875 4.95923 12.6875 6.48267C12.6875 9.58032 10.0977 12.1194 6.97461 12.1194C6.03516 12.1194 5.12109 11.8655 4.2832 11.4338L1.3125 12.1956L2.09961 9.27563C1.61719 8.43774 1.33789 7.4729 1.33789 6.45728C1.33789 3.35962 3.87695 0.820557 6.97461 0.820557C8.49805 0.820557 9.91992 1.42993 10.9609 2.49634ZM6.97461 11.1545C9.56445 11.1545 11.7227 9.04712 11.7227 6.48267C11.7227 5.21313 11.1895 4.04517 10.3008 3.15649C9.41211 2.26782 8.24414 1.7854 7 1.7854C4.41016 1.7854 2.30273 3.89282 2.30273 6.45728C2.30273 7.34595 2.55664 8.20923 3.01367 8.97095L3.14062 9.14868L2.6582 10.8752L4.43555 10.3928L4.58789 10.4944C5.32422 10.926 6.13672 11.1545 6.97461 11.1545ZM9.56445 7.65063C9.69141 7.72681 9.79297 7.7522 9.81836 7.82837C9.86914 7.87915 9.86914 8.15845 9.74219 8.48853C9.61523 8.8186 9.05664 9.12329 8.80273 9.14868C8.3457 9.22485 7.99023 9.19946 7.10156 8.79321C5.67969 8.18384 4.76562 6.76196 4.68945 6.68579C4.61328 6.58423 4.13086 5.92407 4.13086 5.21313C4.13086 4.52759 4.48633 4.19751 4.61328 4.04517C4.74023 3.89282 4.89258 3.86743 4.99414 3.86743C5.07031 3.86743 5.17188 3.86743 5.24805 3.86743C5.34961 3.86743 5.45117 3.84204 5.57812 4.12134C5.67969 4.40063 5.98438 5.08618 6.00977 5.16235C6.03516 5.23853 6.06055 5.3147 6.00977 5.41626C5.75586 5.94946 5.45117 5.92407 5.60352 6.17798C6.16211 7.11743 6.69531 7.44751 7.5332 7.85376C7.66016 7.92993 7.73633 7.90454 7.83789 7.82837C7.91406 7.72681 8.19336 7.39673 8.26953 7.26978C8.37109 7.11743 8.47266 7.14282 8.59961 7.1936C8.72656 7.24438 9.41211 7.57446 9.56445 7.65063Z" fill="white"/>
</svg>
