<svg width="17" height="12" viewBox="0 0 17 12" fill="none" xmlns="http://www.w3.org/2000/svg">
<path d="M16.0288 2.14746C16.3804 3.37793 16.3804 6.01465 16.3804 6.01465C16.3804 6.01465 16.3804 8.62207 16.0288 9.88184C15.853 10.585 15.2964 11.1123 14.6226 11.2881C13.3628 11.6104 8.38232 11.6104 8.38232 11.6104C8.38232 11.6104 3.37256 11.6104 2.11279 11.2881C1.43896 11.1123 0.882324 10.585 0.706543 9.88184C0.35498 8.62207 0.35498 6.01465 0.35498 6.01465C0.35498 6.01465 0.35498 3.37793 0.706543 2.14746C0.882324 1.44434 1.43896 0.887695 2.11279 0.711914C3.37256 0.360352 8.38232 0.360352 8.38232 0.360352C8.38232 0.360352 13.3628 0.360352 14.6226 0.711914C15.2964 0.887695 15.853 1.44434 16.0288 2.14746ZM6.7417 8.3877L10.9019 6.01465L6.7417 3.6416V8.3877Z" fill="white"/>
</svg>
