<svg width="58" height="58" viewBox="0 0 58 58" fill="none" xmlns="http://www.w3.org/2000/svg">
<rect width="58" height="58" rx="29" fill="#0A5B21"/>
<path d="M31.6625 28.4336C31.5304 28.3203 31.3746 28.2637 31.1953 28.2637C31.0159 28.2637 30.8601 28.3203 30.728 28.4336L29.5385 29.6514C29.4441 29.6136 29.3544 29.5853 29.2695 29.5664C29.1845 29.5475 29.0948 29.5381 29.0004 29.5381C28.906 29.5381 28.8164 29.5475 28.7314 29.5664C28.6464 29.5853 28.5568 29.6136 28.4623 29.6514L25.9985 27.1592C25.8663 27.0459 25.7106 26.9893 25.5312 26.9893C25.3518 26.9893 25.1961 27.0459 25.0639 27.1592C24.9506 27.2913 24.894 27.4471 24.894 27.6265C24.894 27.8058 24.9506 27.9521 25.0639 28.0654L27.5561 30.5576C27.5183 30.6331 27.4947 30.7181 27.4853 30.8125C27.4759 30.9069 27.4711 31.0013 27.4711 31.0957C27.4711 31.5111 27.6222 31.8698 27.9243 32.1719C28.2263 32.474 28.5851 32.625 29.0004 32.625C29.4158 32.625 29.7745 32.474 30.0766 32.1719C30.3787 31.8698 30.5297 31.5111 30.5297 31.0957C30.5297 31.0013 30.525 30.9069 30.5156 30.8125C30.5061 30.7181 30.4825 30.6331 30.4448 30.5576L31.6625 29.3398C31.7758 29.2266 31.8325 29.0802 31.8325 28.9009C31.8325 28.7215 31.7758 28.5658 31.6625 28.4336ZM29.0004 31.4639C28.8872 31.4639 28.7975 31.4261 28.7314 31.3506C28.6653 31.2751 28.6323 31.1901 28.6323 31.0957C28.6323 30.9824 28.6653 30.888 28.7314 30.8125C28.7975 30.737 28.8872 30.6992 29.0004 30.6992C29.1137 30.6992 29.2034 30.737 29.2695 30.8125C29.3356 30.888 29.3686 30.9824 29.3686 31.0957C29.3686 31.1901 29.3356 31.2751 29.2695 31.3506C29.2034 31.4261 29.1137 31.4639 29.0004 31.4639ZM36.5903 21.3535L37.3266 20.3057L40.2436 22.3447C40.3002 22.3825 40.3569 22.4108 40.4135 22.4297C40.4702 22.4486 40.5362 22.458 40.6118 22.458C40.6306 22.458 40.6495 22.458 40.6684 22.458C40.6873 22.458 40.7062 22.458 40.725 22.458C40.8006 22.4391 40.8761 22.4061 40.9516 22.3589C41.0271 22.3117 41.0838 22.2598 41.1215 22.2031C41.8579 21.1458 42.1175 19.9847 41.9003 18.7197C41.6832 17.4548 41.046 16.4447 39.9887 15.6895C38.9314 14.9531 37.7703 14.6982 36.5053 14.9248C35.2403 15.1514 34.2397 15.7933 33.5034 16.8506C33.3901 17.0016 33.3523 17.1621 33.3901 17.332C33.4278 17.502 33.5128 17.6341 33.645 17.7285L36.2504 19.5693L35.5424 20.6172C34.5984 20.013 33.5742 19.5505 32.4697 19.2295C31.3652 18.9085 30.2088 18.748 29.0004 18.748C27.811 18.748 26.664 18.9085 25.5595 19.2295C24.455 19.5505 23.4213 20.013 22.4584 20.6172L21.7504 19.5693L24.3559 17.7285C24.4881 17.6341 24.573 17.502 24.6108 17.332C24.6485 17.1621 24.6108 17.0016 24.4975 16.8506C23.7612 15.7933 22.7605 15.1514 21.4956 14.9248C20.2306 14.6982 19.0694 14.9531 18.0122 15.6895C16.9549 16.4447 16.3177 17.4548 16.1005 18.7197C15.8834 19.9847 16.143 21.1458 16.8793 22.2031C16.9171 22.2598 16.9737 22.3117 17.0493 22.3589C17.1248 22.4061 17.2003 22.4391 17.2758 22.458C17.2947 22.458 17.3136 22.458 17.3325 22.458C17.3513 22.458 17.3702 22.458 17.3891 22.458C17.4646 22.458 17.5307 22.4486 17.5873 22.4297C17.644 22.4108 17.7006 22.3825 17.7573 22.3447L20.6743 20.3057L21.4106 21.3535C20.6931 21.9199 20.0418 22.5618 19.4565 23.2793C18.8523 23.9779 18.3473 24.7425 17.9414 25.5732C17.5354 26.404 17.2192 27.2819 16.9926 28.207C16.7661 29.1322 16.6528 30.0951 16.6528 31.0957C16.6528 32.1719 16.7849 33.2103 17.0493 34.2109C17.3136 35.2116 17.6865 36.1509 18.1679 37.0288C18.6494 37.9067 19.2299 38.7139 19.9096 39.4502C20.6082 40.1865 21.3728 40.8379 22.2036 41.4043L21.184 42.8486C21.0707 42.9997 21.033 43.1602 21.0707 43.3301C21.1085 43.5 21.1935 43.6416 21.3256 43.7549C21.3823 43.7926 21.4436 43.821 21.5097 43.8398C21.5758 43.8587 21.6372 43.8682 21.6938 43.8682C21.8071 43.8682 21.9109 43.8446 22.0053 43.7974C22.0997 43.7502 22.1752 43.6794 22.2319 43.585L23.3081 42.0557C24.1577 42.4899 25.0639 42.8298 26.0268 43.0752C26.9897 43.3206 27.9809 43.4434 29.0004 43.4434C30.02 43.4434 31.0112 43.3206 31.9741 43.0752C32.937 42.8298 33.8432 42.4899 34.6928 42.0557L35.769 43.585C35.8256 43.6794 35.9012 43.7502 35.9956 43.7974C36.09 43.8446 36.1938 43.8682 36.3071 43.8682C36.3637 43.8682 36.4251 43.8587 36.4912 43.8398C36.5572 43.821 36.6186 43.7926 36.6752 43.7549C36.8074 43.6416 36.8924 43.5 36.9301 43.3301C36.9679 43.1602 36.9301 42.9997 36.8168 42.8486L35.7973 41.4043C36.628 40.8379 37.3927 40.1865 38.0913 39.4502C38.7709 38.7139 39.3515 37.9067 39.833 37.0288C40.3144 36.1509 40.6873 35.2116 40.9516 34.2109C41.2159 33.2103 41.3481 32.1719 41.3481 31.0957C41.3481 30.0951 41.2348 29.1322 41.0082 28.207C40.7817 27.2819 40.4654 26.404 40.0595 25.5732C39.6536 24.7425 39.1485 23.9779 38.5444 23.2793C37.9591 22.5618 37.3077 21.9199 36.5903 21.3535ZM34.976 17.1055C35.5424 16.5391 36.2268 16.2228 37.0292 16.1567C37.8317 16.0907 38.5727 16.2936 39.2524 16.7656C39.9132 17.2376 40.3474 17.8607 40.5551 18.6348C40.7628 19.4089 40.7062 20.1641 40.3852 20.9004L34.976 17.1055ZM17.6157 20.9004C17.2947 20.1641 17.2381 19.4089 17.4457 18.6348C17.6534 17.8607 18.0877 17.2376 18.7485 16.7656C19.0506 16.5579 19.3668 16.4022 19.6972 16.2983C20.0276 16.1945 20.3533 16.1426 20.6743 16.1426C21.1085 16.1426 21.5286 16.2228 21.9345 16.3833C22.3404 16.5438 22.7039 16.7845 23.0248 17.1055L17.6157 20.9004ZM29.0004 42.1689C27.4711 42.1689 26.0362 41.8763 24.6957 41.291C23.3553 40.7057 22.1847 39.9128 21.184 38.9121C20.1834 37.9115 19.3904 36.7409 18.8051 35.4004C18.2198 34.0599 17.9272 32.625 17.9272 31.0957C17.9272 29.5664 18.2198 28.1315 18.8051 26.791C19.3904 25.4505 20.1834 24.2752 21.184 23.2651C22.1847 22.255 23.3553 21.4668 24.6957 20.9004C26.0362 20.3151 27.4711 20.0225 29.0004 20.0225C30.5297 20.0225 31.9646 20.3151 33.3051 20.9004C34.6456 21.4668 35.8162 22.255 36.8168 23.2651C37.8175 24.2752 38.6105 25.4505 39.1957 26.791C39.781 28.1315 40.0737 29.5664 40.0737 31.0957C40.0737 32.625 39.781 34.0599 39.1957 35.4004C38.6105 36.7409 37.8175 37.9115 36.8168 38.9121C35.8162 39.9128 34.6456 40.7057 33.3051 41.291C31.9646 41.8763 30.5297 42.1689 29.0004 42.1689ZM29.0004 22.0049C27.7543 22.0049 26.5743 22.2409 25.4604 22.7129C24.3653 23.1849 23.4072 23.8363 22.5859 24.667C21.7646 25.4977 21.1085 26.4606 20.6176 27.5557C20.1456 28.6507 19.9096 29.8307 19.9096 31.0957C19.9096 32.3418 20.1456 33.5218 20.6176 34.6357C21.1085 35.7308 21.7646 36.689 22.5859 37.5103C23.4072 38.3315 24.3653 38.9782 25.4604 39.4502C26.5743 39.9411 27.7543 40.1865 29.0004 40.1865C30.2465 40.1865 31.4265 39.9411 32.5405 39.4502C33.6355 38.9782 34.5937 38.3315 35.415 37.5103C36.2363 36.689 36.8924 35.7308 37.3832 34.6357C37.8553 33.5218 38.0913 32.3418 38.0913 31.0957C38.0913 29.8307 37.8553 28.6507 37.3832 27.5557C36.8924 26.4606 36.2363 25.4977 35.415 24.667C34.5937 23.8363 33.6355 23.1849 32.5405 22.7129C31.4265 22.2409 30.2465 22.0049 29.0004 22.0049ZM35.0327 36.2217L34.6079 35.7969C34.4757 35.6647 34.3247 35.5986 34.1547 35.5986C33.9848 35.5986 33.8338 35.6647 33.7016 35.7969C33.5694 35.9102 33.5034 36.0565 33.5034 36.2358C33.5034 36.4152 33.5694 36.571 33.7016 36.7031L34.1264 37.1279C33.5222 37.6566 32.8378 38.0814 32.0732 38.4023C31.3085 38.7233 30.5014 38.9215 29.6518 38.9971V38.374C29.6518 38.2041 29.5857 38.0531 29.4536 37.9209C29.3214 37.7887 29.1704 37.7227 29.0004 37.7227C28.8305 37.7227 28.6795 37.7887 28.5473 37.9209C28.4151 38.0531 28.3491 38.2041 28.3491 38.374V38.9971C27.4995 38.9215 26.6923 38.7233 25.9277 38.4023C25.163 38.0814 24.4786 37.6566 23.8745 37.1279L24.2993 36.7031C24.4314 36.571 24.4975 36.4152 24.4975 36.2358C24.4975 36.0565 24.4314 35.9102 24.2993 35.7969C24.186 35.6647 24.0397 35.5986 23.8603 35.5986C23.6809 35.5986 23.5252 35.6647 23.393 35.7969L22.9682 36.2217C22.4396 35.5986 22.0148 34.9095 21.6938 34.1543C21.3728 33.3991 21.1746 32.5872 21.0991 31.7188H21.7221C21.892 31.7188 22.0384 31.6574 22.1611 31.5347C22.2838 31.4119 22.3452 31.2656 22.3452 31.0957C22.3452 30.9069 22.2838 30.7511 22.1611 30.6284C22.0384 30.5057 21.892 30.4443 21.7221 30.4443H21.0991C21.1746 29.5947 21.3728 28.7876 21.6938 28.0229C22.0148 27.2583 22.4396 26.5739 22.9682 25.9697L23.393 26.3945C23.4497 26.4512 23.5205 26.4984 23.6054 26.5361C23.6904 26.5739 23.7706 26.5928 23.8461 26.5928C23.9217 26.5928 24.0019 26.5739 24.0869 26.5361C24.1718 26.4984 24.2426 26.4512 24.2993 26.3945C24.4314 26.2624 24.4975 26.1066 24.4975 25.9272C24.4975 25.7479 24.4314 25.6016 24.2993 25.4883L23.8745 25.0352C24.4786 24.5254 25.163 24.1053 25.9277 23.7749C26.6923 23.4445 27.4995 23.251 28.3491 23.1943V23.8174C28.3491 23.9873 28.4151 24.1336 28.5473 24.2563C28.6795 24.3791 28.8305 24.4404 29.0004 24.4404C29.1704 24.4404 29.3214 24.3791 29.4536 24.2563C29.5857 24.1336 29.6518 23.9873 29.6518 23.8174V23.1943C30.5014 23.251 31.3085 23.4445 32.0732 23.7749C32.8378 24.1053 33.5222 24.5254 34.1264 25.0352L33.7016 25.4883C33.5694 25.6016 33.5034 25.7479 33.5034 25.9272C33.5034 26.1066 33.5694 26.2624 33.7016 26.3945C33.7582 26.4512 33.829 26.4984 33.914 26.5361C33.999 26.5739 34.0792 26.5928 34.1547 26.5928C34.2303 26.5928 34.3105 26.5739 34.3955 26.5361C34.4804 26.4984 34.5512 26.4512 34.6079 26.3945L35.0327 25.9697C35.5613 26.5739 35.9861 27.2583 36.3071 28.0229C36.628 28.7876 36.8263 29.5947 36.9018 30.4443H36.2788C36.1088 30.4443 35.9625 30.5057 35.8398 30.6284C35.7171 30.7511 35.6557 30.9069 35.6557 31.0957C35.6557 31.2656 35.7171 31.4119 35.8398 31.5347C35.9625 31.6574 36.1088 31.7188 36.2788 31.7188H36.9018C36.8263 32.5872 36.628 33.3991 36.3071 34.1543C35.9861 34.9095 35.5613 35.5986 35.0327 36.2217Z" fill="white"/>
</svg>
