<svg width="58" height="58" viewBox="0 0 58 58" fill="none" xmlns="http://www.w3.org/2000/svg">
<rect width="58" height="58" rx="29" fill="#0A5B21"/>
<path d="M42.4805 23.4707C43.1035 23.9805 43.5 24.7168 43.5 25.5664V40.4062C43.5 41.9355 42.2539 43.125 40.7812 43.125H17.2188C15.6895 43.125 14.5 41.9355 14.5 40.4062V25.5664C14.5 24.7168 14.8398 23.9805 15.4629 23.4707C15.6895 23.3008 21.75 18.4297 23.1094 17.2969C24.4121 16.2773 26.5078 14.125 29 14.125C31.4355 14.125 33.5879 16.334 34.834 17.2969C36.1367 18.373 42.1973 23.2441 42.4805 23.4707ZM40.7812 40.0664V25.7363C40.7812 25.623 40.7246 25.5098 40.6113 25.4531C39.7051 24.7168 34.4375 20.5254 33.1348 19.4492C32.1152 18.6562 30.3027 16.8438 29 16.8438C27.6406 16.8438 25.8281 18.5996 24.8086 19.4492C23.5059 20.5254 18.2383 24.7168 17.332 25.4531C17.2188 25.5098 17.2188 25.623 17.2188 25.7363V40.0664C17.2188 40.293 17.332 40.4062 17.5586 40.4062H40.4414C40.6113 40.4062 40.7812 40.293 40.7812 40.0664ZM38.9688 29.4746C39.1953 29.7578 39.1387 30.2109 38.8555 30.4375C37.2129 31.7402 35.457 33.0996 34.834 33.666C33.5312 34.6855 31.4355 36.7812 29 36.7812C26.5078 36.7812 24.3555 34.6289 23.1094 33.666C22.4863 33.1562 20.7305 31.7402 19.0879 30.4375C18.8047 30.2109 18.748 29.7578 18.9746 29.4746L19.8809 28.3984C20.1074 28.1152 20.5039 28.0586 20.8438 28.3418C22.4297 29.6445 24.1289 31.0039 24.8086 31.5137C25.8281 32.3066 27.6406 34.0625 29 34.0625C30.3027 34.0625 32.1152 32.3633 33.1348 31.5137C33.8145 31.0039 35.5137 29.6445 37.0996 28.3418C37.4395 28.0586 37.8359 28.1152 38.0625 28.3984L38.9688 29.4746Z" fill="white"/>
</svg>
