<svg width="58" height="58" viewBox="0 0 58 58" fill="none" xmlns="http://www.w3.org/2000/svg">
<rect width="58" height="58" rx="29" fill="#0A5B21"/>
<path d="M29 20.6455C28.1504 20.6455 27.3574 20.806 26.6211 21.127C25.8848 21.4479 25.2428 21.8822 24.6953 22.4297C24.1478 22.9772 23.7135 23.6191 23.3926 24.3555C23.0716 25.0918 22.9111 25.8753 22.9111 26.7061C22.9111 27.5368 23.0716 28.3203 23.3926 29.0566C23.7135 29.793 24.1478 30.4396 24.6953 30.9966C25.2428 31.5535 25.8848 31.9831 26.6211 32.2852C27.3574 32.6061 28.1504 32.7666 29 32.7666C29.8307 32.7666 30.6143 32.6156 31.3506 32.3135C32.0869 31.9925 32.7288 31.5535 33.2764 30.9966C33.8239 30.4396 34.2581 29.793 34.5791 29.0566C34.9001 28.3203 35.0605 27.5368 35.0605 26.7061C35.0605 25.8753 34.9001 25.0918 34.5791 24.3555C34.2581 23.6191 33.8239 22.9772 33.2764 22.4297C32.7288 21.8822 32.0869 21.4479 31.3506 21.127C30.6143 20.806 29.8307 20.6455 29 20.6455ZM29 31.3223C27.7161 31.3223 26.6258 30.8691 25.729 29.9629C24.8322 29.0566 24.3838 27.971 24.3838 26.7061C24.3838 25.4411 24.8322 24.3555 25.729 23.4492C26.6258 22.543 27.7161 22.0898 29 22.0898C30.265 22.0898 31.3459 22.543 32.2427 23.4492C33.1395 24.3555 33.5879 25.4411 33.5879 26.7061C33.5879 27.971 33.1395 29.0566 32.2427 29.9629C31.3459 30.8691 30.265 31.3223 29 31.3223ZM29 14.8682C28.9245 14.8682 28.8537 14.8682 28.7876 14.8682C28.7215 14.8682 28.6507 14.8682 28.5752 14.8682C27.1214 14.9248 25.7432 15.2269 24.4404 15.7744C23.1377 16.3408 21.9813 17.096 20.9712 18.04C19.9611 18.984 19.1351 20.0885 18.4932 21.3535C17.8512 22.6185 17.4642 23.9779 17.332 25.4316C17.2754 25.998 17.2612 26.5645 17.2896 27.1309C17.3179 27.6973 17.3792 28.2448 17.4736 28.7734C17.4736 28.7734 17.4831 28.8065 17.502 28.8726C17.5208 28.9386 17.5397 29.0378 17.5586 29.1699C17.653 29.5664 17.7663 29.9582 17.8984 30.3452C18.0306 30.7323 18.1816 31.1051 18.3516 31.4639C18.6536 32.1813 19.0501 32.9837 19.541 33.8711C20.0508 34.7773 20.688 35.7402 21.4526 36.7598C22.2173 37.7793 23.1283 38.8555 24.1855 39.9883C25.2428 41.1211 26.4889 42.2822 27.9238 43.4717C28.0749 43.6038 28.2448 43.703 28.4336 43.769C28.6224 43.8351 28.8112 43.8682 29 43.8682C29.2077 43.8682 29.4012 43.8351 29.5806 43.769C29.7599 43.703 29.9251 43.6038 30.0762 43.4717C31.5111 42.2822 32.7572 41.1211 33.8145 39.9883C34.8906 38.8555 35.8063 37.7793 36.5615 36.7598C37.3167 35.7402 37.9492 34.7868 38.459 33.8994C38.9499 33.012 39.3464 32.2096 39.6484 31.4922C39.8184 31.1146 39.9694 30.7323 40.1016 30.3452C40.2337 29.9582 40.347 29.5664 40.4414 29.1699C40.4603 29.0944 40.4744 29.0283 40.4839 28.9717C40.4933 28.915 40.5075 28.8584 40.5264 28.8018C40.583 28.4242 40.6302 28.0513 40.668 27.6831C40.7057 27.3149 40.7246 26.9421 40.7246 26.5645C40.7246 24.9596 40.4131 23.4492 39.79 22.0332C39.167 20.5983 38.3268 19.3522 37.2695 18.2949C36.2122 17.2376 34.9756 16.3975 33.5596 15.7744C32.1247 15.1702 30.6048 14.8682 29 14.8682ZM39.0537 28.5469C39.0537 28.5469 39.049 28.5752 39.0396 28.6318C39.0301 28.6885 39.016 28.7546 38.9971 28.8301C38.9215 29.1888 38.8271 29.5381 38.7139 29.8779C38.6006 30.2178 38.4684 30.5576 38.3174 30.8975C38.0153 31.5771 37.6283 32.3418 37.1562 33.1914C36.6842 34.041 36.0848 34.952 35.3579 35.9243C34.631 36.8966 33.7578 37.9303 32.7383 39.0254C31.7188 40.1016 30.5199 41.2061 29.1416 42.3389C29.1227 42.3577 29.0991 42.3719 29.0708 42.3813C29.0425 42.3908 29.0189 42.3955 29 42.3955C28.9811 42.3955 28.9575 42.3908 28.9292 42.3813C28.9009 42.3719 28.8773 42.3577 28.8584 42.3389C27.4801 41.2061 26.2812 40.1016 25.2617 39.0254C24.2422 37.9303 23.3643 36.8966 22.6279 35.9243C21.8916 34.952 21.2874 34.041 20.8154 33.1914C20.3434 32.3229 19.9658 31.5488 19.6826 30.8691C19.5316 30.5482 19.3994 30.2178 19.2861 29.8779C19.1729 29.5381 19.069 29.1888 18.9746 28.8301C18.9557 28.7546 18.9416 28.6932 18.9321 28.646C18.9227 28.5988 18.918 28.5752 18.918 28.5752C18.918 28.5563 18.918 28.5469 18.918 28.5469C18.918 28.5469 18.918 28.5374 18.918 28.5186C18.8236 28.0465 18.7669 27.5604 18.748 27.0601C18.7292 26.5597 18.7386 26.0641 18.7764 25.5732C18.9085 24.3083 19.2484 23.1188 19.7959 22.0049C20.3623 20.891 21.0845 19.9233 21.9624 19.1021C22.8403 18.2808 23.8551 17.6247 25.0068 17.1338C26.1396 16.6429 27.348 16.3691 28.6318 16.3125C30.0856 16.2747 31.4544 16.5107 32.7383 17.0205C34.041 17.5492 35.1738 18.2808 36.1367 19.2153C37.0996 20.1499 37.8548 21.2497 38.4023 22.5146C38.9688 23.7796 39.252 25.139 39.252 26.5928C39.252 26.9137 39.2378 27.2347 39.2095 27.5557C39.1812 27.8766 39.1292 28.207 39.0537 28.5469Z" fill="white"/>
</svg>
