<svg width="50" height="51" viewBox="0 0 50 51" fill="none" xmlns="http://www.w3.org/2000/svg">
<rect y="0.170166" width="50" height="50" rx="25" fill="#1DA1F2"/>
<path d="M34.9121 20.217C34.9121 20.4612 34.9121 20.6565 34.9121 20.9006C34.9121 27.6877 29.7852 35.4514 20.3613 35.4514C17.4316 35.4514 14.7461 34.6213 12.5 33.1565C12.8906 33.2053 13.2812 33.2542 13.7207 33.2542C16.1133 33.2542 18.3105 32.4241 20.0684 31.0569C17.8223 31.0081 15.918 29.5432 15.2832 27.4924C15.625 27.5413 15.918 27.5901 16.2598 27.5901C16.6992 27.5901 17.1875 27.4924 17.5781 27.3948C15.2344 26.9065 13.4766 24.8557 13.4766 22.3655V22.3167C14.1602 22.7073 14.9902 22.9026 15.8203 22.9514C14.4043 22.0237 13.5254 20.4612 13.5254 18.7034C13.5254 17.7268 13.7695 16.8479 14.209 16.1155C16.748 19.1917 20.5566 21.2424 24.8047 21.4866C24.707 21.0959 24.6582 20.7053 24.6582 20.3147C24.6582 17.4827 26.9531 15.1877 29.7852 15.1877C31.25 15.1877 32.5684 15.7737 33.5449 16.7991C34.668 16.5549 35.791 16.1155 36.7676 15.5295C36.377 16.7502 35.5957 17.7268 34.5215 18.3616C35.5469 18.2639 36.5723 17.9709 37.4512 17.5803C36.7676 18.6057 35.8887 19.4846 34.9121 20.217Z" fill="white"/>
</svg>
