<svg width="50" height="51" viewBox="0 0 50 51" fill="none" xmlns="http://www.w3.org/2000/svg">
<rect y="0.170166" width="50" height="50" rx="25" fill="#25D366"/>
<path d="M32.6172 17.5803C34.668 19.6311 35.9375 22.3167 35.9375 25.2463C35.9375 31.2034 30.957 36.0862 24.9512 36.0862C23.1445 36.0862 21.3867 35.5979 19.7754 34.7678L14.0625 36.2327L15.5762 30.6174C14.6484 29.0061 14.1113 27.1506 14.1113 25.1975C14.1113 19.2405 18.9941 14.3577 24.9512 14.3577C27.8809 14.3577 30.6152 15.5295 32.6172 17.5803ZM24.9512 34.2307C29.9316 34.2307 34.082 30.178 34.082 25.2463C34.082 22.8049 33.0566 20.5588 31.3477 18.8499C29.6387 17.1409 27.3926 16.2131 25 16.2131C20.0195 16.2131 15.9668 20.2659 15.9668 25.1975C15.9668 26.9065 16.4551 28.5667 17.334 30.0315L17.5781 30.3733L16.6504 33.6936L20.0684 32.7659L20.3613 32.9612C21.7773 33.7913 23.3398 34.2307 24.9512 34.2307ZM29.9316 27.4924C30.1758 27.6389 30.3711 27.6877 30.4199 27.8342C30.5176 27.9319 30.5176 28.469 30.2734 29.1038C30.0293 29.7385 28.9551 30.3245 28.4668 30.3733C27.5879 30.5198 26.9043 30.4709 25.1953 29.6897C22.4609 28.5178 20.7031 25.7834 20.5566 25.637C20.4102 25.4417 19.4824 24.1721 19.4824 22.8049C19.4824 21.4866 20.166 20.8518 20.4102 20.5588C20.6543 20.2659 20.9473 20.217 21.1426 20.217C21.2891 20.217 21.4844 20.217 21.6309 20.217C21.8262 20.217 22.0215 20.1682 22.2656 20.7053C22.4609 21.2424 23.0469 22.5608 23.0957 22.7073C23.1445 22.8538 23.1934 23.0002 23.0957 23.1956C22.6074 24.2209 22.0215 24.1721 22.3145 24.6604C23.3887 26.467 24.4141 27.1018 26.0254 27.8831C26.2695 28.0295 26.416 27.9807 26.6113 27.8342C26.7578 27.6389 27.2949 27.0042 27.4414 26.76C27.6367 26.467 27.832 26.5159 28.0762 26.6135C28.3203 26.7112 29.6387 27.3459 29.9316 27.4924Z" fill="white"/>
</svg>
