<svg width="50" height="51" viewBox="0 0 50 51" fill="none" xmlns="http://www.w3.org/2000/svg">
<rect y="0.170166" width="50" height="50" rx="25" fill="#CD201F"/>
<path d="M37.75 18.8987C38.3359 20.9495 38.3359 25.344 38.3359 25.344C38.3359 25.344 38.3359 29.6897 37.75 31.7893C37.457 32.9612 36.5293 33.8401 35.4062 34.1331C33.3066 34.6702 25.0059 34.6702 25.0059 34.6702C25.0059 34.6702 16.6562 34.6702 14.5566 34.1331C13.4336 33.8401 12.5059 32.9612 12.2129 31.7893C11.627 29.6897 11.627 25.344 11.627 25.344C11.627 25.344 11.627 20.9495 12.2129 18.8987C12.5059 17.7268 13.4336 16.7991 14.5566 16.5061C16.6562 15.9202 25.0059 15.9202 25.0059 15.9202C25.0059 15.9202 33.3066 15.9202 35.4062 16.5061C36.5293 16.7991 37.457 17.7268 37.75 18.8987ZM22.2715 29.2991L29.2051 25.344L22.2715 21.3889V29.2991Z" fill="white"/>
</svg>
