<svg width="13" height="17" viewBox="0 0 13 17" fill="none" xmlns="http://www.w3.org/2000/svg">
<path d="M12.8998 7.20234L10.6248 4.92734C10.5664 4.87734 10.5018 4.85234 10.431 4.85234C10.3602 4.85234 10.2956 4.87734 10.2373 4.92734C10.1873 4.97734 10.1623 5.03984 10.1623 5.11484C10.1623 5.18984 10.1873 5.25234 10.2373 5.30234L12.0748 7.13984H3.87476C3.80809 7.13984 3.74767 7.16484 3.69351 7.21484C3.63934 7.26484 3.61226 7.32734 3.61226 7.40234C3.61226 7.47734 3.63934 7.53984 3.69351 7.58984C3.74767 7.63984 3.81226 7.66484 3.88726 7.66484H12.0748L10.2373 9.50234C10.1873 9.55234 10.1623 9.61484 10.1623 9.68984C10.1623 9.76484 10.1873 9.82734 10.2373 9.87734C10.2623 9.90234 10.2914 9.92318 10.3248 9.93984C10.3581 9.95651 10.3914 9.96484 10.4248 9.96484C10.4664 9.96484 10.5018 9.95651 10.531 9.93984C10.5602 9.92318 10.5914 9.90234 10.6248 9.87734L12.8998 7.60234C12.9248 7.57734 12.9456 7.54818 12.9623 7.51484C12.9789 7.48151 12.9873 7.44401 12.9873 7.40234C12.9873 7.36068 12.9789 7.32318 12.9623 7.28984C12.9456 7.25651 12.9248 7.22734 12.8998 7.20234ZM2.67476 7.13984H0.449756C0.383089 7.13984 0.322673 7.16484 0.268506 7.21484C0.214339 7.26484 0.187256 7.32734 0.187256 7.40234C0.187256 7.47734 0.214339 7.54193 0.268506 7.59609C0.322673 7.65026 0.383089 7.67734 0.449756 7.67734H2.67476C2.74142 7.67734 2.80184 7.65026 2.85601 7.59609C2.91017 7.54193 2.93726 7.47734 2.93726 7.40234C2.93726 7.32734 2.91017 7.26484 2.85601 7.21484C2.80184 7.16484 2.74142 7.13984 2.67476 7.13984Z" fill="black"/>
</svg>
