<svg width="22" height="22" viewBox="0 0 22 22" fill="none" xmlns="http://www.w3.org/2000/svg">
<path d="M20.7134 6.38721C20.3579 5.67627 19.9136 5.01318 19.3804 4.39795C18.8472 3.78271 18.2593 3.23584 17.6167 2.75732C17.521 2.68896 17.415 2.66162 17.2988 2.67529C17.1826 2.68896 17.0903 2.74365 17.022 2.83936C16.9536 2.93506 16.9263 3.04102 16.9399 3.15723C16.9536 3.27344 17.0083 3.36572 17.104 3.43408C17.7056 3.87158 18.249 4.37744 18.7344 4.95166C19.2197 5.52588 19.6265 6.14111 19.9546 6.79736C20.3101 7.48096 20.5767 8.19189 20.7544 8.93018C20.9321 9.66846 21.021 10.4272 21.021 11.2065C21.021 12.5327 20.7681 13.7837 20.2622 14.9595C19.7563 16.1216 19.0693 17.1401 18.2012 18.0151C17.333 18.8901 16.311 19.5806 15.1353 20.0864C13.9595 20.5923 12.7085 20.8452 11.3823 20.8452C10.0562 20.8452 8.80518 20.5923 7.62939 20.0864C6.45361 19.5806 5.43164 18.8901 4.56348 18.0151C3.69531 17.1401 3.0083 16.1216 2.50244 14.9595C1.99658 13.7837 1.74365 12.5327 1.74365 11.2065C1.74365 9.88037 1.99658 8.62939 2.50244 7.45361C3.0083 6.27783 3.69531 5.25244 4.56348 4.37744C5.43164 3.50244 6.45361 2.81201 7.62939 2.30615C8.80518 1.80029 10.0562 1.54736 11.3823 1.54736C11.5054 1.54736 11.6079 1.50635 11.6899 1.42432C11.772 1.34229 11.813 1.24658 11.813 1.13721C11.813 1.01416 11.772 0.911621 11.6899 0.82959C11.6079 0.747559 11.5054 0.706543 11.3823 0.706543C9.93311 0.706543 8.57275 0.97998 7.30127 1.52686C6.02979 2.07373 4.91895 2.82227 3.96875 3.77246C3.01855 4.72266 2.26318 5.84033 1.70264 7.12549C1.15576 8.39697 0.882324 9.75732 0.882324 11.2065C0.882324 12.6558 1.15576 14.0161 1.70264 15.2876C2.26318 16.5591 3.01855 17.6699 3.96875 18.6201C4.91895 19.5703 6.02979 20.3257 7.30127 20.8862C8.57275 21.4331 9.93311 21.7065 11.3823 21.7065C12.8315 21.7065 14.1919 21.4331 15.4634 20.8862C16.7349 20.3257 17.8457 19.5703 18.7959 18.6201C19.7461 17.6699 20.5015 16.5591 21.062 15.2876C21.6089 14.0161 21.8823 12.6558 21.8823 11.2065C21.8823 10.3726 21.7832 9.54541 21.585 8.7251C21.3867 7.90479 21.0962 7.12549 20.7134 6.38721ZM8.6958 6.32568C8.62744 6.3667 8.57275 6.41797 8.53174 6.47949C8.49072 6.54102 8.47021 6.61279 8.47021 6.69482V16.0874C8.47021 16.1968 8.51465 16.2925 8.60352 16.3745C8.69238 16.4565 8.7915 16.4976 8.90088 16.4976C9.02393 16.4976 9.12646 16.4565 9.2085 16.3745C9.29053 16.2925 9.33154 16.1968 9.33154 16.0874V7.45361L15.6685 11.2065L11.0132 14.2212C10.9175 14.2759 10.856 14.3613 10.8286 14.4775C10.8013 14.5938 10.8218 14.6997 10.8901 14.7954C10.9448 14.9048 11.0303 14.9697 11.1465 14.9902C11.2627 15.0107 11.3687 14.9937 11.4644 14.939L16.7144 11.5552C16.769 11.5142 16.8135 11.4629 16.8477 11.4014C16.8818 11.3398 16.8989 11.2681 16.8989 11.186C16.8989 11.1177 16.8818 11.0527 16.8477 10.9912C16.8135 10.9297 16.7622 10.8784 16.6938 10.8374L9.12646 6.32568C9.05811 6.28467 8.98633 6.26416 8.91113 6.26416C8.83594 6.26416 8.76416 6.28467 8.6958 6.32568Z" fill="black"/>
</svg>
